HIERARCHY
ROOT SpineBase
{
  OFFSET 0.000000 0.000000 0.000000
  CHANNELS 6 Xposition Yposition Zposition Zrotation Xrotation Yrotation
  JOINT SpineMid
  {
    OFFSET 0.000000 29.396107 0.000000
    CHANNELS 3 Zrotation Xrotation Yrotation
    JOINT SpineShoulder
    {
      OFFSET -0.088346 21.827612 -0.733970
      CHANNELS 3 Zrotation Xrotation Yrotation
      JOINT Neck
      {
        OFFSET -0.067668 7.220462 -0.540535
        CHANNELS 3 Zrotation Xrotation Yrotation
        JOINT Head
        {
          OFFSET 5.116334 12.740697 0.552901
          CHANNELS 3 Zrotation Xrotation Yrotation
          End Site
          {
            OFFSET 0 0 0
          }
        }
      }
      JOINT ShoulderLeft
      {
        OFFSET -13.619542 -3.593142 -8.012286
        CHANNELS 3 Zrotation Xrotation Yrotation
        JOINT ElbowLeft
        {
          OFFSET -6.226227 -24.235721 -0.826572
          CHANNELS 3 Zrotation Xrotation Yrotation
          JOINT WristLeft
          {
            OFFSET -0.246501 -19.494351 -3.861928
            CHANNELS 3 Zrotation Xrotation Yrotation
            JOINT HandLeft
            {
              OFFSET 0.873089 -6.155125 0.036956
              CHANNELS 3 Zrotation Xrotation Yrotation
              JOINT HandTipLeft
              {
                OFFSET -0.477858 -7.080993 -0.461500
                CHANNELS 3 Zrotation Xrotation Yrotation
                End Site
                {
                  OFFSET 0 0 0
                }
              }
              JOINT ThumbLeft
              {
                OFFSET 2.849964 0.152542 -0.716532
                CHANNELS 3 Zrotation Xrotation Yrotation
                End Site
                {
                  OFFSET 0 0 0
                }
              }
            }
          }
        }
      }
      JOINT ShoulderRight
      {
        OFFSET 15.203591 -5.693788 3.744963
        CHANNELS 3 Zrotation Xrotation Yrotation
        JOINT ElbowRight
        {
          OFFSET 2.119411 -24.642343 3.501286
          CHANNELS 3 Zrotation Xrotation Yrotation
          JOINT WristRight
          {
            OFFSET 0.496244 -20.787161 -2.916382
            CHANNELS 3 Zrotation Xrotation Yrotation
            JOINT HandRight
            {
              OFFSET -0.707829 -6.242031 -0.551341
              CHANNELS 3 Zrotation Xrotation Yrotation
              JOINT HandTipRight
              {
                OFFSET -0.586101 -6.371376 0.819639
                CHANNELS 3 Zrotation Xrotation Yrotation
                End Site
                {
                  OFFSET 0 0 0
                }
              }
              JOINT ThumbRight
              {
                OFFSET -2.892739 0.638261 -1.951265
                CHANNELS 3 Zrotation Xrotation Yrotation
                End Site
                {
                  OFFSET 0 0 0
                }
              }
            }
          }
        }
      }
    }
  }
  JOINT HipLeft
  {
    OFFSET -6.712385 1.329425 -5.345787
    CHANNELS 3 Zrotation Xrotation Yrotation
    JOINT KneeLeft
    {
      OFFSET -7.787722 -27.372615 5.840425
      CHANNELS 3 Zrotation Xrotation Yrotation
      JOINT AnkleLeft
      {
        OFFSET -2.441331 -34.372863 9.339859
        CHANNELS 3 Zrotation Xrotation Yrotation
        JOINT FootLeft
        {
          OFFSET 3.016511 -2.947597 -14.969854
          CHANNELS 3 Zrotation Xrotation Yrotation
          End Site
          {
            OFFSET 0 0 0
          }
        }
      }
    }
  }
  JOINT HipRight
  {
    OFFSET 5.910349 0.185003 -1.001367
    CHANNELS 3 Zrotation Xrotation Yrotation
    JOINT KneeRight
    {
      OFFSET -7.273556 -26.906810 7.366180
      CHANNELS 3 Zrotation Xrotation Yrotation
      JOINT AnkleRight
      {
        OFFSET -8.161068 -32.420592 8.691253
        CHANNELS 3 Zrotation Xrotation Yrotation
        JOINT FootRight
        {
          OFFSET 4.475333 -3.138215 -13.249147
          CHANNELS 3 Zrotation Xrotation Yrotation
          End Site
          {
            OFFSET 0 0 0
          }
        }
      }
    }
  }
}
MOTION
Frames: 5
Frame Time: 0.033333
41.494933 67.369579 318.271662 -0.000000 0.000000 -18.992143 0.000000 0.000000 18.992143 -0.000000 0.000000 0.000000 -0.000000 0.000000 0.000000 0.000000 0.000000 0.000000 -0.000000 0.000000 0.000000 -0.000000 0.000000 0.000000 -0.000000 0.000000 0.000000 -0.000000 0.000000 0.000000 0.000000 0.000000 0.000000 0.000000 0.000000 0.000000 -0.000000 0.000000 0.000000 -0.000000 0.000000 0.000000 -0.000000 0.000000 0.000000 -0.000000 0.000000 0.000000 0.000000 0.000000 0.000000 0.000000 0.000000 0.000000 0.000000 0.000000 18.992143 -0.000000 0.000000 0.000000 -0.000000 0.000000 0.000000 0.000000 0.000000 0.000000 0.000000 0.000000 18.992143 -0.000000 0.000000 0.000000 -0.000000 0.000000 0.000000 0.000000 0.000000 0.000000
41.514908 67.362836 318.268124 -0.004174 -0.049390 -19.083893 -0.012204 0.048040 19.083897 -0.000000 0.000000 0.000000 -0.000000 0.000000 0.000000 0.000000 0.000000 0.000000 -0.000000 0.000000 0.000000 -0.000000 0.000000 0.000000 -0.000000 0.000000 0.000000 -0.000000 0.000000 0.000000 0.000000 0.000000 0.000000 0.000000 0.000000 0.000000 -0.000000 0.000000 0.000000 -0.000000 0.000000 0.000000 -0.000000 0.000000 0.000000 -0.224589 -0.787048 0.041922 0.000000 0.000000 0.000000 0.000000 0.000000 0.000000 -0.012204 0.048040 19.083897 -0.776317 0.551337 -0.246573 -0.883561 -11.346960 -4.833666 0.000000 0.000000 0.000000 -0.012204 0.048040 19.083897 -0.000000 0.000000 0.000000 -1.947028 -3.857501 3.180779 0.000000 0.000000 0.000000
41.531772 67.356954 318.259824 -0.006567 -0.094467 -19.161617 -0.024804 0.091389 19.161632 -0.000000 0.000000 0.000000 -0.000000 0.000000 0.000000 0.000000 0.000000 0.000000 -0.000000 0.000000 0.000000 -0.279418 -0.770883 0.063305 0.164685 -0.034783 -0.181284 0.878045 1.825697 -0.022098 0.000000 0.000000 0.000000 0.000000 0.000000 0.000000 -0.000000 0.000000 0.000000 -0.000000 0.000000 0.000000 0.074537 1.146798 -0.137266 -0.431267 -2.647688 0.215043 0.000000 0.000000 0.000000 0.000000 0.000000 0.000000 -0.024804 0.091389 19.161632 -1.438311 1.008211 -0.450468 -4.647861 -27.163961 -13.314906 0.000000 0.000000 0.000000 -0.024804 0.091389 19.161632 -0.000000 0.000000 0.000000 -3.933933 -8.370223 6.796767 0.000000 0.000000 0.000000
41.545527 67.351933 318.246760 -0.007181 -0.135240 -19.225293 -0.037752 0.130062 19.225327 -0.000000 0.000000 0.000000 -0.000000 0.000000 0.000000 0.000000 0.000000 0.000000 -0.000000 0.000000 0.000000 -0.362328 -0.995197 0.081353 0.277946 0.035104 -0.223533 1.285190 2.175438 -0.057379 0.000000 0.000000 0.000000 0.000000 0.000000 0.000000 -0.000000 0.000000 0.000000 -0.000000 0.000000 0.000000 0.162016 1.754632 -0.215520 -0.558954 -3.888099 0.333687 0.000000 0.000000 0.000000 0.000000 0.000000 0.000000 -0.037752 0.130062 19.225327 -1.978642 1.362873 -0.612182 -14.345609 -44.157228 -27.670296 0.000000 0.000000 0.000000 -0.037752 0.130062 19.225327 -0.091274 0.890035 -0.248275 -5.713681 -14.428630 11.006508 0.000000 0.000000 0.000000
41.556171 67.347774 318.228932 -0.006015 -0.171717 -19.274904 -0.051006 0.164077 19.274968 -0.000000 0.000000 0.000000 -0.000000 0.000000 0.000000 0.000000 0.000000 0.000000 -0.000000 0.000000 0.000000 -0.409281 -1.116962 0.091388 0.409898 0.146633 -0.236904 1.671385 2.159086 -0.097496 0.000000 0.000000 0.000000 0.000000 0.000000 0.000000 -0.000000 0.000000 0.000000 -0.000000 0.000000 0.000000 0.282989 2.389387 -0.301415 -0.623475 -5.067971 0.465433 0.000000 0.000000 0.000000 0.000000 0.000000 0.000000 -0.051006 0.164077 19.274968 -2.391326 1.609131 -0.732278 -30.095403 -55.460071 -46.901895 0.000000 0.000000 0.000000 0.118208 -0.762492 19.486839 0.070505 1.981059 -0.497601 -7.392056 -20.249227 15.441598 0.000000 0.000000 0.000000
